<?xml version="1.0" encoding="utf-8" standalone="no"?>
<!DOCTYPE svg PUBLIC "-//W3C//DTD SVG 1.1//EN"
  "http://www.w3.org/Graphics/SVG/1.1/DTD/svg11.dtd">
<svg xmlns:xlink="http://www.w3.org/1999/xlink" width="218.88pt" height="161.28pt" viewBox="0 0 218.88 161.28" xmlns="http://www.w3.org/2000/svg" version="1.1">
 <metadata>
  <rdf:RDF xmlns:dc="http://purl.org/dc/elements/1.1/" xmlns:cc="http://creativecommons.org/ns#" xmlns:rdf="http://www.w3.org/1999/02/22-rdf-syntax-ns#">
   <cc:Work>
    <dc:type rdf:resource="http://purl.org/dc/dcmitype/StillImage"/>
    <dc:date>2026-06-06T12:10:04.247435</dc:date>
    <dc:format>image/svg+xml</dc:format>
    <dc:creator>
     <cc:Agent>
      <dc:title>Matplotlib v3.10.9, https://matplotlib.org/</dc:title>
     </cc:Agent>
    </dc:creator>
   </cc:Work>
  </rdf:RDF>
 </metadata>
 <defs>
  <style type="text/css">*{stroke-linejoin: round; stroke-linecap: butt}</style>
 </defs>
 <g id="figure_1">
  <g id="patch_1">
   <path d="M 0 161.28 
L 218.88 161.28 
L 218.88 0 
L 0 0 
z
" style="fill: #ffffff"/>
  </g>
  <g id="axes_1">
   <g id="patch_2">
    <path d="M 14.844674 133.215019 
L 217.44 133.215019 
L 217.44 1.44 
L 14.844674 1.44 
z
" style="fill: #ffffff"/>
   </g>
   <g id="matplotlib.axis_1">
    <g id="xtick_1">
     <g id="line2d_1">
      <defs>
       <path id="m14b0198f44" d="M 0 0 
L 0 -4 
" style="stroke: #000000; stroke-width: 0.8"/>
      </defs>
      <g>
       <use xlink:href="#m14b0198f44" x="14.844674" y="133.215019" style="stroke: #000000; stroke-width: 0.8"/>
      </g>
     </g>
     <g id="line2d_2">
      <defs>
       <path id="mdcd1e2b8bb" d="M 0 0 
L 0 4 
" style="stroke: #000000; stroke-width: 0.8"/>
      </defs>
      <g>
       <use xlink:href="#mdcd1e2b8bb" x="14.844674" y="1.44" style="stroke: #000000; stroke-width: 0.8"/>
      </g>
     </g>
     <g id="text_1">
      <!-- $\mathdefault{0.0}$ -->
      <g transform="translate(7.920756 144.31334) scale(0.1 -0.1)">
       <defs>
        <path id="NimbusSanL-Regu-30" d="M 1760 4544 
C 1338 4544 954 4360 717 4046 
C 422 3651 275 3044 275 2208 
C 275 683 787 -128 1760 -128 
C 2720 -128 3245 683 3245 2170 
C 3245 3050 3104 3638 2803 4046 
C 2566 4366 2189 4544 1760 4544 
z
M 1760 4044 
C 2368 4044 2669 3432 2669 2221 
C 2669 939 2374 340 1747 340 
C 1152 340 851 965 851 2202 
C 851 3438 1152 4044 1760 4044 
z
" transform="scale(0.015625)"/>
        <path id="NimbusSanL-Regu-2e" d="M 1222 667 
L 557 667 
L 557 0 
L 1222 0 
L 1222 667 
z
" transform="scale(0.015625)"/>
       </defs>
       <use xlink:href="#NimbusSanL-Regu-30" transform="scale(0.996264)"/>
       <use xlink:href="#NimbusSanL-Regu-2e" transform="translate(55.391677 0) scale(0.996264)"/>
       <use xlink:href="#NimbusSanL-Regu-30" transform="translate(83.086847 0) scale(0.996264)"/>
      </g>
     </g>
    </g>
    <g id="xtick_2">
     <g id="line2d_3">
      <g>
       <use xlink:href="#m14b0198f44" x="48.712164" y="133.215019" style="stroke: #000000; stroke-width: 0.8"/>
      </g>
     </g>
     <g id="line2d_4">
      <g>
       <use xlink:href="#mdcd1e2b8bb" x="48.712164" y="1.44" style="stroke: #000000; stroke-width: 0.8"/>
      </g>
     </g>
     <g id="text_2">
      <!-- $\mathdefault{0.5}$ -->
      <g transform="translate(41.788246 144.31334) scale(0.1 -0.1)">
       <defs>
        <path id="NimbusSanL-Regu-35" d="M 3046 4544 
L 704 4544 
L 365 2086 
L 883 2086 
C 1146 2399 1363 2508 1715 2508 
C 2323 2508 2707 2092 2707 1421 
C 2707 768 2330 372 1715 372 
C 1222 372 922 621 787 1133 
L 224 1133 
C 301 762 365 582 499 415 
C 755 70 1216 -128 1728 -128 
C 2643 -128 3283 537 3283 1497 
C 3283 2394 2688 3008 1818 3008 
C 1498 3008 1242 2925 979 2732 
L 1158 3987 
L 3046 3987 
L 3046 4544 
z
" transform="scale(0.015625)"/>
       </defs>
       <use xlink:href="#NimbusSanL-Regu-30" transform="scale(0.996264)"/>
       <use xlink:href="#NimbusSanL-Regu-2e" transform="translate(55.391677 0) scale(0.996264)"/>
       <use xlink:href="#NimbusSanL-Regu-35" transform="translate(83.086847 0) scale(0.996264)"/>
      </g>
     </g>
    </g>
    <g id="xtick_3">
     <g id="line2d_5">
      <g>
       <use xlink:href="#m14b0198f44" x="82.579654" y="133.215019" style="stroke: #000000; stroke-width: 0.8"/>
      </g>
     </g>
     <g id="line2d_6">
      <g>
       <use xlink:href="#mdcd1e2b8bb" x="82.579654" y="1.44" style="stroke: #000000; stroke-width: 0.8"/>
      </g>
     </g>
     <g id="text_3">
      <!-- $\mathdefault{1.0}$ -->
      <g transform="translate(75.655736 144.31334) scale(0.1 -0.1)">
       <defs>
        <path id="NimbusSanL-Regu-31" d="M 1658 3238 
L 1658 0 
L 2221 0 
L 2221 4545 
L 1850 4545 
C 1651 3847 1523 3751 653 3642 
L 653 3238 
L 1658 3238 
z
" transform="scale(0.015625)"/>
       </defs>
       <use xlink:href="#NimbusSanL-Regu-31" transform="scale(0.996264)"/>
       <use xlink:href="#NimbusSanL-Regu-2e" transform="translate(55.391677 0) scale(0.996264)"/>
       <use xlink:href="#NimbusSanL-Regu-30" transform="translate(83.086847 0) scale(0.996264)"/>
      </g>
     </g>
    </g>
    <g id="xtick_4">
     <g id="line2d_7">
      <g>
       <use xlink:href="#m14b0198f44" x="116.447144" y="133.215019" style="stroke: #000000; stroke-width: 0.8"/>
      </g>
     </g>
     <g id="line2d_8">
      <g>
       <use xlink:href="#mdcd1e2b8bb" x="116.447144" y="1.44" style="stroke: #000000; stroke-width: 0.8"/>
      </g>
     </g>
     <g id="text_4">
      <!-- $\mathdefault{1.5}$ -->
      <g transform="translate(109.523227 144.31334) scale(0.1 -0.1)">
       <use xlink:href="#NimbusSanL-Regu-31" transform="scale(0.996264)"/>
       <use xlink:href="#NimbusSanL-Regu-2e" transform="translate(55.391677 0) scale(0.996264)"/>
       <use xlink:href="#NimbusSanL-Regu-35" transform="translate(83.086847 0) scale(0.996264)"/>
      </g>
     </g>
    </g>
    <g id="xtick_5">
     <g id="line2d_9">
      <g>
       <use xlink:href="#m14b0198f44" x="150.314635" y="133.215019" style="stroke: #000000; stroke-width: 0.8"/>
      </g>
     </g>
     <g id="line2d_10">
      <g>
       <use xlink:href="#mdcd1e2b8bb" x="150.314635" y="1.44" style="stroke: #000000; stroke-width: 0.8"/>
      </g>
     </g>
     <g id="text_5">
      <!-- $\mathdefault{2.0}$ -->
      <g transform="translate(143.390717 144.31334) scale(0.1 -0.1)">
       <defs>
        <path id="NimbusSanL-Regu-32" d="M 3238 558 
L 851 558 
C 909 930 1114 1167 1670 1494 
L 2310 1840 
C 2944 2186 3270 2653 3270 3211 
C 3270 3589 3117 3942 2848 4185 
C 2579 4429 2246 4544 1818 4544 
C 1242 4544 813 4339 563 3955 
C 403 3711 333 3429 320 2967 
L 883 2967 
C 902 3275 941 3461 1018 3608 
C 1165 3884 1459 4051 1798 4051 
C 2310 4051 2694 3685 2694 3198 
C 2694 2839 2483 2531 2080 2301 
L 1491 1968 
C 544 1430 269 1000 218 0 
L 3238 0 
L 3238 558 
z
" transform="scale(0.015625)"/>
       </defs>
       <use xlink:href="#NimbusSanL-Regu-32" transform="scale(0.996264)"/>
       <use xlink:href="#NimbusSanL-Regu-2e" transform="translate(55.391677 0) scale(0.996264)"/>
       <use xlink:href="#NimbusSanL-Regu-30" transform="translate(83.086847 0) scale(0.996264)"/>
      </g>
     </g>
    </g>
    <g id="xtick_6">
     <g id="line2d_11">
      <g>
       <use xlink:href="#m14b0198f44" x="184.182125" y="133.215019" style="stroke: #000000; stroke-width: 0.8"/>
      </g>
     </g>
     <g id="line2d_12">
      <g>
       <use xlink:href="#mdcd1e2b8bb" x="184.182125" y="1.44" style="stroke: #000000; stroke-width: 0.8"/>
      </g>
     </g>
     <g id="text_6">
      <!-- $\mathdefault{2.5}$ -->
      <g transform="translate(177.258207 144.31334) scale(0.1 -0.1)">
       <use xlink:href="#NimbusSanL-Regu-32" transform="scale(0.996264)"/>
       <use xlink:href="#NimbusSanL-Regu-2e" transform="translate(55.391677 0) scale(0.996264)"/>
       <use xlink:href="#NimbusSanL-Regu-35" transform="translate(83.086847 0) scale(0.996264)"/>
      </g>
     </g>
    </g>
    <g id="xtick_7">
     <g id="line2d_13">
      <defs>
       <path id="m3727b2f3af" d="M 0 0 
L 0 -2 
" style="stroke: #000000; stroke-width: 0.6"/>
      </defs>
      <g>
       <use xlink:href="#m3727b2f3af" x="21.618172" y="133.215019" style="stroke: #000000; stroke-width: 0.6"/>
      </g>
     </g>
     <g id="line2d_14">
      <defs>
       <path id="m73eea049df" d="M 0 0 
L 0 2 
" style="stroke: #000000; stroke-width: 0.6"/>
      </defs>
      <g>
       <use xlink:href="#m73eea049df" x="21.618172" y="1.44" style="stroke: #000000; stroke-width: 0.6"/>
      </g>
     </g>
    </g>
    <g id="xtick_8">
     <g id="line2d_15">
      <g>
       <use xlink:href="#m3727b2f3af" x="28.39167" y="133.215019" style="stroke: #000000; stroke-width: 0.6"/>
      </g>
     </g>
     <g id="line2d_16">
      <g>
       <use xlink:href="#m73eea049df" x="28.39167" y="1.44" style="stroke: #000000; stroke-width: 0.6"/>
      </g>
     </g>
    </g>
    <g id="xtick_9">
     <g id="line2d_17">
      <g>
       <use xlink:href="#m3727b2f3af" x="35.165168" y="133.215019" style="stroke: #000000; stroke-width: 0.6"/>
      </g>
     </g>
     <g id="line2d_18">
      <g>
       <use xlink:href="#m73eea049df" x="35.165168" y="1.44" style="stroke: #000000; stroke-width: 0.6"/>
      </g>
     </g>
    </g>
    <g id="xtick_10">
     <g id="line2d_19">
      <g>
       <use xlink:href="#m3727b2f3af" x="41.938666" y="133.215019" style="stroke: #000000; stroke-width: 0.6"/>
      </g>
     </g>
     <g id="line2d_20">
      <g>
       <use xlink:href="#m73eea049df" x="41.938666" y="1.44" style="stroke: #000000; stroke-width: 0.6"/>
      </g>
     </g>
    </g>
    <g id="xtick_11">
     <g id="line2d_21">
      <g>
       <use xlink:href="#m3727b2f3af" x="55.485662" y="133.215019" style="stroke: #000000; stroke-width: 0.6"/>
      </g>
     </g>
     <g id="line2d_22">
      <g>
       <use xlink:href="#m73eea049df" x="55.485662" y="1.44" style="stroke: #000000; stroke-width: 0.6"/>
      </g>
     </g>
    </g>
    <g id="xtick_12">
     <g id="line2d_23">
      <g>
       <use xlink:href="#m3727b2f3af" x="62.25916" y="133.215019" style="stroke: #000000; stroke-width: 0.6"/>
      </g>
     </g>
     <g id="line2d_24">
      <g>
       <use xlink:href="#m73eea049df" x="62.25916" y="1.44" style="stroke: #000000; stroke-width: 0.6"/>
      </g>
     </g>
    </g>
    <g id="xtick_13">
     <g id="line2d_25">
      <g>
       <use xlink:href="#m3727b2f3af" x="69.032658" y="133.215019" style="stroke: #000000; stroke-width: 0.6"/>
      </g>
     </g>
     <g id="line2d_26">
      <g>
       <use xlink:href="#m73eea049df" x="69.032658" y="1.44" style="stroke: #000000; stroke-width: 0.6"/>
      </g>
     </g>
    </g>
    <g id="xtick_14">
     <g id="line2d_27">
      <g>
       <use xlink:href="#m3727b2f3af" x="75.806156" y="133.215019" style="stroke: #000000; stroke-width: 0.6"/>
      </g>
     </g>
     <g id="line2d_28">
      <g>
       <use xlink:href="#m73eea049df" x="75.806156" y="1.44" style="stroke: #000000; stroke-width: 0.6"/>
      </g>
     </g>
    </g>
    <g id="xtick_15">
     <g id="line2d_29">
      <g>
       <use xlink:href="#m3727b2f3af" x="89.353152" y="133.215019" style="stroke: #000000; stroke-width: 0.6"/>
      </g>
     </g>
     <g id="line2d_30">
      <g>
       <use xlink:href="#m73eea049df" x="89.353152" y="1.44" style="stroke: #000000; stroke-width: 0.6"/>
      </g>
     </g>
    </g>
    <g id="xtick_16">
     <g id="line2d_31">
      <g>
       <use xlink:href="#m3727b2f3af" x="96.12665" y="133.215019" style="stroke: #000000; stroke-width: 0.6"/>
      </g>
     </g>
     <g id="line2d_32">
      <g>
       <use xlink:href="#m73eea049df" x="96.12665" y="1.44" style="stroke: #000000; stroke-width: 0.6"/>
      </g>
     </g>
    </g>
    <g id="xtick_17">
     <g id="line2d_33">
      <g>
       <use xlink:href="#m3727b2f3af" x="102.900148" y="133.215019" style="stroke: #000000; stroke-width: 0.6"/>
      </g>
     </g>
     <g id="line2d_34">
      <g>
       <use xlink:href="#m73eea049df" x="102.900148" y="1.44" style="stroke: #000000; stroke-width: 0.6"/>
      </g>
     </g>
    </g>
    <g id="xtick_18">
     <g id="line2d_35">
      <g>
       <use xlink:href="#m3727b2f3af" x="109.673646" y="133.215019" style="stroke: #000000; stroke-width: 0.6"/>
      </g>
     </g>
     <g id="line2d_36">
      <g>
       <use xlink:href="#m73eea049df" x="109.673646" y="1.44" style="stroke: #000000; stroke-width: 0.6"/>
      </g>
     </g>
    </g>
    <g id="xtick_19">
     <g id="line2d_37">
      <g>
       <use xlink:href="#m3727b2f3af" x="123.220642" y="133.215019" style="stroke: #000000; stroke-width: 0.6"/>
      </g>
     </g>
     <g id="line2d_38">
      <g>
       <use xlink:href="#m73eea049df" x="123.220642" y="1.44" style="stroke: #000000; stroke-width: 0.6"/>
      </g>
     </g>
    </g>
    <g id="xtick_20">
     <g id="line2d_39">
      <g>
       <use xlink:href="#m3727b2f3af" x="129.99414" y="133.215019" style="stroke: #000000; stroke-width: 0.6"/>
      </g>
     </g>
     <g id="line2d_40">
      <g>
       <use xlink:href="#m73eea049df" x="129.99414" y="1.44" style="stroke: #000000; stroke-width: 0.6"/>
      </g>
     </g>
    </g>
    <g id="xtick_21">
     <g id="line2d_41">
      <g>
       <use xlink:href="#m3727b2f3af" x="136.767638" y="133.215019" style="stroke: #000000; stroke-width: 0.6"/>
      </g>
     </g>
     <g id="line2d_42">
      <g>
       <use xlink:href="#m73eea049df" x="136.767638" y="1.44" style="stroke: #000000; stroke-width: 0.6"/>
      </g>
     </g>
    </g>
    <g id="xtick_22">
     <g id="line2d_43">
      <g>
       <use xlink:href="#m3727b2f3af" x="143.541136" y="133.215019" style="stroke: #000000; stroke-width: 0.6"/>
      </g>
     </g>
     <g id="line2d_44">
      <g>
       <use xlink:href="#m73eea049df" x="143.541136" y="1.44" style="stroke: #000000; stroke-width: 0.6"/>
      </g>
     </g>
    </g>
    <g id="xtick_23">
     <g id="line2d_45">
      <g>
       <use xlink:href="#m3727b2f3af" x="157.088133" y="133.215019" style="stroke: #000000; stroke-width: 0.6"/>
      </g>
     </g>
     <g id="line2d_46">
      <g>
       <use xlink:href="#m73eea049df" x="157.088133" y="1.44" style="stroke: #000000; stroke-width: 0.6"/>
      </g>
     </g>
    </g>
    <g id="xtick_24">
     <g id="line2d_47">
      <g>
       <use xlink:href="#m3727b2f3af" x="163.861631" y="133.215019" style="stroke: #000000; stroke-width: 0.6"/>
      </g>
     </g>
     <g id="line2d_48">
      <g>
       <use xlink:href="#m73eea049df" x="163.861631" y="1.44" style="stroke: #000000; stroke-width: 0.6"/>
      </g>
     </g>
    </g>
    <g id="xtick_25">
     <g id="line2d_49">
      <g>
       <use xlink:href="#m3727b2f3af" x="170.635129" y="133.215019" style="stroke: #000000; stroke-width: 0.6"/>
      </g>
     </g>
     <g id="line2d_50">
      <g>
       <use xlink:href="#m73eea049df" x="170.635129" y="1.44" style="stroke: #000000; stroke-width: 0.6"/>
      </g>
     </g>
    </g>
    <g id="xtick_26">
     <g id="line2d_51">
      <g>
       <use xlink:href="#m3727b2f3af" x="177.408627" y="133.215019" style="stroke: #000000; stroke-width: 0.6"/>
      </g>
     </g>
     <g id="line2d_52">
      <g>
       <use xlink:href="#m73eea049df" x="177.408627" y="1.44" style="stroke: #000000; stroke-width: 0.6"/>
      </g>
     </g>
    </g>
    <g id="xtick_27">
     <g id="line2d_53">
      <g>
       <use xlink:href="#m3727b2f3af" x="190.955623" y="133.215019" style="stroke: #000000; stroke-width: 0.6"/>
      </g>
     </g>
     <g id="line2d_54">
      <g>
       <use xlink:href="#m73eea049df" x="190.955623" y="1.44" style="stroke: #000000; stroke-width: 0.6"/>
      </g>
     </g>
    </g>
    <g id="xtick_28">
     <g id="line2d_55">
      <g>
       <use xlink:href="#m3727b2f3af" x="197.729121" y="133.215019" style="stroke: #000000; stroke-width: 0.6"/>
      </g>
     </g>
     <g id="line2d_56">
      <g>
       <use xlink:href="#m73eea049df" x="197.729121" y="1.44" style="stroke: #000000; stroke-width: 0.6"/>
      </g>
     </g>
    </g>
    <g id="xtick_29">
     <g id="line2d_57">
      <g>
       <use xlink:href="#m3727b2f3af" x="204.502619" y="133.215019" style="stroke: #000000; stroke-width: 0.6"/>
      </g>
     </g>
     <g id="line2d_58">
      <g>
       <use xlink:href="#m73eea049df" x="204.502619" y="1.44" style="stroke: #000000; stroke-width: 0.6"/>
      </g>
     </g>
    </g>
    <g id="xtick_30">
     <g id="line2d_59">
      <g>
       <use xlink:href="#m3727b2f3af" x="211.276117" y="133.215019" style="stroke: #000000; stroke-width: 0.6"/>
      </g>
     </g>
     <g id="line2d_60">
      <g>
       <use xlink:href="#m73eea049df" x="211.276117" y="1.44" style="stroke: #000000; stroke-width: 0.6"/>
      </g>
     </g>
    </g>
    <g id="text_7">
     <!-- Photon Energy (eV) -->
     <g transform="translate(72.396981 157.718014) scale(0.1 -0.1)">
      <defs>
       <path id="NimbusSanL-Regu-50" d="M 1178 1984 
L 2643 1984 
C 3008 1984 3296 2093 3546 2316 
C 3827 2573 3949 2873 3949 3303 
C 3949 4179 3430 4672 2509 4672 
L 582 4672 
L 582 -14 
L 1178 -14 
L 1178 1984 
z
M 1178 2510 
L 1178 4146 
L 2419 4146 
C 2989 4146 3328 3839 3328 3327 
C 3328 2816 2989 2510 2419 2510 
L 1178 2510 
z
" transform="scale(0.015625)"/>
       <path id="NimbusSanL-Regu-68" d="M 448 4672 
L 448 -2 
L 979 -2 
L 979 1852 
C 979 2539 1338 2988 1888 2988 
C 2061 2988 2234 2930 2362 2834 
C 2515 2725 2579 2564 2579 2327 
L 2579 -2 
L 3110 -2 
L 3110 2538 
C 3110 3103 2707 3456 2054 3456 
C 1581 3456 1293 3308 979 2898 
L 979 4672 
L 448 4672 
z
" transform="scale(0.015625)"/>
       <path id="NimbusSanL-Regu-6f" d="M 1741 3456 
C 800 3456 230 2786 230 1663 
C 230 541 794 -128 1747 -128 
C 2688 -128 3264 541 3264 1638 
C 3264 2792 2707 3456 1741 3456 
z
M 1747 2962 
C 2349 2962 2707 2472 2707 1645 
C 2707 861 2336 365 1747 365 
C 1152 365 787 855 787 1663 
C 787 2466 1152 2962 1747 2962 
z
" transform="scale(0.015625)"/>
       <path id="NimbusSanL-Regu-74" d="M 1626 3380 
L 1075 3380 
L 1075 4288 
L 544 4288 
L 544 3380 
L 90 3380 
L 90 2944 
L 544 2944 
L 544 404 
C 544 64 774 -128 1190 -128 
C 1318 -128 1446 -116 1626 -83 
L 1626 366 
C 1555 346 1472 340 1370 340 
C 1139 340 1075 404 1075 641 
L 1075 2944 
L 1626 2944 
L 1626 3380 
z
" transform="scale(0.015625)"/>
       <path id="NimbusSanL-Regu-6e" d="M 448 3359 
L 448 0 
L 986 0 
L 986 1853 
C 986 2539 1344 2988 1894 2988 
C 2317 2988 2586 2731 2586 2327 
L 2586 0 
L 3117 0 
L 3117 2539 
C 3117 3097 2701 3456 2054 3456 
C 1555 3456 1235 3263 941 2796 
L 941 3359 
L 448 3359 
z
" transform="scale(0.015625)"/>
       <path id="NimbusSanL-Regu-45" d="M 1171 2112 
L 3712 2112 
L 3712 2638 
L 1171 2638 
L 1171 4146 
L 3808 4146 
L 3808 4672 
L 576 4672 
L 576 0 
L 3923 0 
L 3923 526 
L 1171 526 
L 1171 2112 
z
" transform="scale(0.015625)"/>
       <path id="NimbusSanL-Regu-65" d="M 3283 1529 
C 3283 2034 3245 2338 3149 2584 
C 2931 3127 2419 3456 1792 3456 
C 858 3456 256 2742 256 1645 
C 256 547 838 -128 1779 -128 
C 2547 -128 3078 310 3213 1044 
L 2675 1044 
C 2528 598 2227 365 1798 365 
C 1459 365 1171 520 992 805 
C 864 998 819 1193 813 1529 
L 3283 1529 
z
M 826 1984 
C 870 2577 1248 2962 1786 2962 
C 2310 2962 2714 2530 2714 1984 
C 2714 1984 2714 1984 2707 1984 
L 826 1984 
z
" transform="scale(0.015625)"/>
       <path id="NimbusSanL-Regu-72" d="M 442 3359 
L 442 0 
L 979 0 
L 979 1741 
C 979 2221 1101 2535 1357 2720 
C 1523 2842 1683 2880 2054 2880 
L 2054 3432 
C 1965 3444 1920 3444 1850 3444 
C 1504 3444 1242 3240 934 2746 
L 934 3359 
L 442 3359 
z
" transform="scale(0.015625)"/>
       <path id="NimbusSanL-Regu-67" d="M 2637 3341 
L 2637 2854 
C 2368 3252 2042 3438 1613 3438 
C 762 3438 186 2692 186 1600 
C 186 1048 333 598 608 276 
C 858 -7 1216 -173 1568 -173 
C 1990 -173 2285 6 2586 429 
L 2586 258 
C 2586 -192 2528 -465 2394 -649 
C 2253 -844 1978 -959 1651 -959 
C 1408 -959 1190 -896 1043 -783 
C 922 -688 870 -600 838 -406 
L 294 -406 
C 352 -1033 845 -1408 1632 -1408 
C 2131 -1408 2560 -1247 2778 -979 
C 3034 -671 3130 -249 3130 538 
L 3130 3341 
L 2637 3341 
z
M 1670 2944 
C 2246 2944 2586 2455 2586 1613 
C 2586 808 2240 320 1677 320 
C 1094 320 742 816 742 1632 
C 742 2442 1101 2944 1670 2944 
z
" transform="scale(0.015625)"/>
       <path id="NimbusSanL-Regu-79" d="M 2483 3360 
L 1555 738 
L 698 3360 
L 128 3360 
L 1261 -21 
L 1056 -554 
C 973 -792 851 -882 627 -882 
C 550 -882 461 -869 346 -843 
L 346 -1325 
C 454 -1382 563 -1408 704 -1408 
C 877 -1408 1062 -1350 1203 -1247 
C 1370 -1125 1466 -983 1568 -713 
L 3059 3360 
L 2483 3360 
z
" transform="scale(0.015625)"/>
       <path id="NimbusSanL-Regu-28" d="M 1510 4672 
C 870 3830 467 2660 467 1651 
C 467 636 870 -534 1510 -1376 
L 1862 -1376 
C 1299 -457 986 623 986 1651 
C 986 2673 1299 3759 1862 4672 
L 1510 4672 
z
" transform="scale(0.015625)"/>
       <path id="NimbusSanL-Regu-56" d="M 2509 0 
L 4128 4672 
L 3494 4672 
L 2202 718 
L 832 4672 
L 192 4672 
L 1869 0 
L 2509 0 
z
" transform="scale(0.015625)"/>
       <path id="NimbusSanL-Regu-29" d="M 595 -1376 
C 1235 -534 1638 636 1638 1644 
C 1638 2660 1235 3830 595 4672 
L 243 4672 
C 806 3753 1120 2673 1120 1644 
C 1120 623 806 -464 243 -1376 
L 595 -1376 
z
" transform="scale(0.015625)"/>
      </defs>
      <use xlink:href="#NimbusSanL-Regu-50" transform="scale(0.996264)"/>
      <use xlink:href="#NimbusSanL-Regu-68" transform="translate(66.450031 0) scale(0.996264)"/>
      <use xlink:href="#NimbusSanL-Regu-6f" transform="translate(121.841708 0) scale(0.996264)"/>
      <use xlink:href="#NimbusSanL-Regu-74" transform="translate(177.233385 0) scale(0.996264)"/>
      <use xlink:href="#NimbusSanL-Regu-6f" transform="translate(204.928555 0) scale(0.996264)"/>
      <use xlink:href="#NimbusSanL-Regu-6e" transform="translate(260.320232 0) scale(0.996264)"/>
      <use xlink:href="#NimbusSanL-Regu-45" transform="translate(343.407078 0) scale(0.996264)"/>
      <use xlink:href="#NimbusSanL-Regu-6e" transform="translate(409.857109 0) scale(0.996264)"/>
      <use xlink:href="#NimbusSanL-Regu-65" transform="translate(465.248786 0) scale(0.996264)"/>
      <use xlink:href="#NimbusSanL-Regu-72" transform="translate(520.640463 0) scale(0.996264)"/>
      <use xlink:href="#NimbusSanL-Regu-67" transform="translate(553.815693 0) scale(0.996264)"/>
      <use xlink:href="#NimbusSanL-Regu-79" transform="translate(609.20737 0) scale(0.996264)"/>
      <use xlink:href="#NimbusSanL-Regu-28" transform="translate(686.71574 0) scale(0.996264)"/>
      <use xlink:href="#NimbusSanL-Regu-65" transform="translate(719.89097 0) scale(0.996264)"/>
      <use xlink:href="#NimbusSanL-Regu-56" transform="translate(775.282647 0) scale(0.996264)"/>
      <use xlink:href="#NimbusSanL-Regu-29" transform="translate(841.732678 0) scale(0.996264)"/>
     </g>
    </g>
   </g>
   <g id="matplotlib.axis_2">
    <g id="text_8">
     <!-- PL Intensity (arb. u.) -->
     <g transform="translate(8.722687 112.308056) rotate(-90) scale(0.1 -0.1)">
      <defs>
       <path id="NimbusSanL-Regu-4c" d="M 1107 4672 
L 512 4672 
L 512 0 
L 3411 0 
L 3411 526 
L 1107 526 
L 1107 4672 
z
" transform="scale(0.015625)"/>
       <path id="NimbusSanL-Regu-49" d="M 1242 4672 
L 640 4672 
L 640 -2 
L 1242 -2 
L 1242 4672 
z
" transform="scale(0.015625)"/>
       <path id="NimbusSanL-Regu-73" d="M 2803 2427 
C 2797 3085 2362 3456 1587 3456 
C 806 3456 301 3054 301 2436 
C 301 1913 570 1665 1363 1474 
L 1862 1353 
C 2234 1263 2381 1130 2381 888 
C 2381 576 2067 365 1600 365 
C 1312 365 1069 448 934 588 
C 851 684 813 779 781 1014 
L 218 1014 
C 243 241 678 -128 1555 -128 
C 2400 -128 2938 285 2938 929 
C 2938 1426 2656 1701 1990 1860 
L 1478 1981 
C 1043 2082 858 2223 858 2458 
C 858 2764 1133 2962 1568 2962 
C 1997 2962 2227 2777 2240 2427 
L 2803 2427 
z
" transform="scale(0.015625)"/>
       <path id="NimbusSanL-Regu-69" d="M 960 3359 
L 429 3359 
L 429 0 
L 960 0 
L 960 3359 
z
M 960 4672 
L 422 4672 
L 422 3999 
L 960 3999 
L 960 4672 
z
" transform="scale(0.015625)"/>
       <path id="NimbusSanL-Regu-61" d="M 3424 333 
C 3366 320 3341 320 3309 320 
C 3123 320 3021 415 3021 581 
L 3021 2545 
C 3021 3137 2586 3456 1760 3456 
C 1274 3456 870 3316 646 3066 
C 493 2893 429 2702 416 2370 
L 954 2370 
C 998 2777 1242 2962 1741 2962 
C 2221 2962 2490 2783 2490 2465 
L 2490 2325 
C 2490 2101 2355 2006 1933 1955 
C 1178 1860 1062 1834 858 1751 
C 467 1592 269 1292 269 859 
C 269 254 691 -128 1370 -128 
C 1792 -128 2131 19 2509 365 
C 2547 25 2714 -128 3059 -128 
C 3168 -128 3251 -116 3424 -70 
L 3424 333 
z
M 2490 1072 
C 2490 893 2438 785 2278 639 
C 2061 441 1798 340 1485 340 
C 1069 340 826 537 826 874 
C 826 1225 1062 1403 1632 1486 
C 2195 1562 2310 1588 2490 1670 
L 2490 1072 
z
" transform="scale(0.015625)"/>
       <path id="NimbusSanL-Regu-62" d="M 346 4672 
L 346 -2 
L 826 -2 
L 826 448 
C 1082 57 1421 -128 1888 -128 
C 2771 -128 3347 592 3347 1702 
C 3347 2786 2797 3456 1914 3456 
C 1453 3456 1126 3282 877 2905 
L 877 4672 
L 346 4672 
z
M 1811 2956 
C 2406 2956 2790 2440 2790 1645 
C 2790 887 2394 372 1811 372 
C 1248 372 877 881 877 1664 
C 877 2447 1248 2956 1811 2956 
z
" transform="scale(0.015625)"/>
       <path id="NimbusSanL-Regu-75" d="M 3085 33 
L 3085 3392 
L 2554 3392 
L 2554 1479 
C 2554 790 2195 340 1638 340 
C 1216 340 947 597 947 1003 
L 947 3392 
L 416 3392 
L 416 792 
C 416 232 832 -128 1485 -128 
C 1978 -128 2291 45 2605 488 
L 2605 33 
L 3085 33 
z
" transform="scale(0.015625)"/>
      </defs>
      <use xlink:href="#NimbusSanL-Regu-50" transform="scale(0.996264)"/>
      <use xlink:href="#NimbusSanL-Regu-4c" transform="translate(66.450031 0) scale(0.996264)"/>
      <use xlink:href="#NimbusSanL-Regu-49" transform="translate(149.536878 0) scale(0.996264)"/>
      <use xlink:href="#NimbusSanL-Regu-6e" transform="translate(177.232047 0) scale(0.996264)"/>
      <use xlink:href="#NimbusSanL-Regu-74" transform="translate(232.623724 0) scale(0.996264)"/>
      <use xlink:href="#NimbusSanL-Regu-65" transform="translate(260.318894 0) scale(0.996264)"/>
      <use xlink:href="#NimbusSanL-Regu-6e" transform="translate(315.710571 0) scale(0.996264)"/>
      <use xlink:href="#NimbusSanL-Regu-73" transform="translate(371.102248 0) scale(0.996264)"/>
      <use xlink:href="#NimbusSanL-Regu-69" transform="translate(420.915448 0) scale(0.996264)"/>
      <use xlink:href="#NimbusSanL-Regu-74" transform="translate(443.032233 0) scale(0.996264)"/>
      <use xlink:href="#NimbusSanL-Regu-79" transform="translate(470.727402 0) scale(0.996264)"/>
      <use xlink:href="#NimbusSanL-Regu-28" transform="translate(548.235772 0) scale(0.996264)"/>
      <use xlink:href="#NimbusSanL-Regu-61" transform="translate(581.411002 0) scale(0.996264)"/>
      <use xlink:href="#NimbusSanL-Regu-72" transform="translate(636.802679 0) scale(0.996264)"/>
      <use xlink:href="#NimbusSanL-Regu-62" transform="translate(669.977909 0) scale(0.996264)"/>
      <use xlink:href="#NimbusSanL-Regu-2e" transform="translate(721.385472 0) scale(0.996264)"/>
      <use xlink:href="#NimbusSanL-Regu-75" transform="translate(783.350293 0) scale(0.996264)"/>
      <use xlink:href="#NimbusSanL-Regu-2e" transform="translate(838.74197 0) scale(0.996264)"/>
      <use xlink:href="#NimbusSanL-Regu-29" transform="translate(866.43714 0) scale(0.996264)"/>
     </g>
    </g>
   </g>
   <g id="line2d_61">
    <path d="M 14.844674 127.225246 
L 71.742057 127.115102 
L 77.431796 126.875996 
L 81.15722 126.507174 
L 84.002089 126.007467 
L 86.305078 125.385995 
L 88.337128 124.610323 
L 90.165972 123.671652 
L 91.859346 122.545333 
L 93.417251 121.241929 
L 94.907421 119.709667 
L 96.39759 117.850974 
L 97.88776 115.616452 
L 99.377929 112.955609 
L 100.868099 109.817656 
L 102.358268 106.154219 
L 103.916173 101.718933 
L 105.541813 96.393539 
L 107.235187 90.063222 
L 109.064031 82.348832 
L 111.096081 72.791182 
L 113.602275 59.858896 
L 119.969363 26.499673 
L 121.730473 18.859561 
L 122.949702 14.466096 
L 123.897992 11.840134 
L 124.778547 10.029481 
L 125.726837 8.573538 
L 126.471921 7.766882 
L 127.013801 7.461588 
L 127.420211 7.450417 
L 127.826621 7.66397 
L 128.300766 8.220077 
L 128.842646 9.240279 
L 129.7232 11.49312 
L 131.687515 17.240906 
L 132.364865 20.088107 
L 133.10995 24.235367 
L 134.193709 31.72647 
L 135.548409 40.825204 
L 137.377253 51.540268 
L 138.122338 58.510542 
L 139.951183 76.359708 
L 140.425327 78.621791 
L 140.764002 79.417472 
L 141.102677 79.664778 
L 141.305882 79.855426 
L 141.509087 80.366319 
L 141.780027 81.804958 
L 142.186437 85.508187 
L 142.796052 93.619193 
L 143.676606 105.430123 
L 144.015281 107.612656 
L 144.218486 107.905499 
L 144.421691 107.661219 
L 145.166776 106.058334 
L 145.505451 105.088839 
L 145.640921 105.272909 
L 146.182801 107.306337 
L 146.250536 107.28059 
L 146.453741 107.090089 
L 146.589211 107.406968 
L 146.792416 109.429204 
L 147.26656 119.080311 
L 147.605235 123.755612 
L 147.876175 125.230387 
L 148.147115 125.745313 
L 148.48579 125.919253 
L 148.824465 125.801025 
L 149.02767 125.505538 
L 149.230875 124.633873 
L 149.366345 123.066145 
L 149.501815 118.32872 
L 149.637285 99.752648 
L 149.70502 89.636444 
L 149.97596 121.504802 
L 150.179165 124.746212 
L 150.450104 125.853917 
L 150.788779 126.295077 
L 151.398394 126.555574 
L 152.346684 126.701878 
L 154.581938 126.833542 
L 162.439196 126.982582 
L 184.65627 127.08291 
L 217.507735 127.10798 
L 217.507735 127.10798 
" clip-path="url(#p6aa9fe5ad5)" style="fill: none; stroke: #000000; stroke-width: 1.2; stroke-linecap: square"/>
   </g>
   <g id="patch_3">
    <path d="M 14.844674 133.215019 
L 14.844674 1.44 
" style="fill: none; stroke: #000000; stroke-width: 0.8; stroke-linejoin: miter; stroke-linecap: square"/>
   </g>
   <g id="patch_4">
    <path d="M 217.44 133.215019 
L 217.44 1.44 
" style="fill: none; stroke: #000000; stroke-width: 0.8; stroke-linejoin: miter; stroke-linecap: square"/>
   </g>
   <g id="patch_5">
    <path d="M 14.844674 133.215019 
L 217.44 133.215019 
" style="fill: none; stroke: #000000; stroke-width: 0.8; stroke-linejoin: miter; stroke-linecap: square"/>
   </g>
   <g id="patch_6">
    <path d="M 14.844674 1.44 
L 217.44 1.44 
" style="fill: none; stroke: #000000; stroke-width: 0.8; stroke-linejoin: miter; stroke-linecap: square"/>
   </g>
  </g>
 </g>
 <defs>
  <clipPath id="p6aa9fe5ad5">
   <rect x="14.844674" y="1.44" width="202.595326" height="131.775019"/>
  </clipPath>
 </defs>
</svg>
