<svg xmlns="http://www.w3.org/2000/svg" viewBox="0 0 240 240">
  <defs></defs>
  <g stroke="#FFFFFF" stroke-width="5" stroke-linecap="round" opacity="0.4">
    <line x1="186" y1="120" x2="208" y2="120"></line><line x1="153" y1="177.16" x2="164" y2="196.21"></line><line x1="87" y1="177.16" x2="76" y2="196.21"></line><line x1="54" y1="120" x2="32" y2="120"></line><line x1="87" y1="62.84" x2="76" y2="43.79"></line><line x1="153" y1="62.84" x2="164" y2="43.79"></line>
  </g>
  <g fill="#FFFFFF" opacity="0.4">
    <circle cx="208" cy="120" r="5"></circle><circle cx="164" cy="196.21" r="5"></circle><circle cx="76" cy="196.21" r="5"></circle><circle cx="32" cy="120" r="5"></circle><circle cx="76" cy="43.79" r="5"></circle><circle cx="164" cy="43.79" r="5"></circle>
  </g>
  <polygon points="186,120 153,177.16 87,177.16 54,120 87,62.84 153,62.84" fill="none" stroke="#FFFFFF" stroke-width="6" stroke-linejoin="round"></polygon>
  <g fill="#FFFFFF">
    <circle cx="186" cy="120" r="11"></circle><circle cx="153" cy="177.16" r="11"></circle><circle cx="87" cy="177.16" r="11"></circle><circle cx="54" cy="120" r="11"></circle><circle cx="87" cy="62.84" r="11"></circle><circle cx="153" cy="62.84" r="11"></circle>
  </g>
  <circle cx="120" cy="120" r="50" fill="none" stroke="#FFFFFF" stroke-width="2.5" opacity="0.30"></circle>
  <circle cx="120" cy="120" r="34" fill="none" stroke="#FFFFFF" stroke-width="3" opacity="0.55"></circle>
  <circle cx="120" cy="120" r="15.5" fill="#FFFFFF"></circle>
</svg>